# xmcd
#
# Track frame offsets:
#	150
#	17205
#	32954
#	50214
#	60821
#	75850
#	93271
#	108943
#	121175
#	137937
#	152749
#	165857
#	181927
#	198578
#	212007
#	227611
#	243367
#	258784
#	274806
#	290385
#	304087
#	317356
#
# Disc length: 4411 seconds
#
# Revision: 1
# Processed by: cddbd v1.5PL3 Copyright (c) Steve Scherf et al.
# Submitted via: audiograbber 1.83.01
#
DISCID=1c113916
DTITLE=El Poder del Norte - 22 Poderosos Exitos
DYEAR=2003
DGENRE=Latin
TTITLE0=Ella
TTITLE1=Piel de Angel
TTITLE2=Por Que Tuvo Que Ser
TTITLE3=Per Me Perdonas
TTITLE4=Muriendo Al Extrañarte
TTITLE5=Para Que Me Engaño
TTITLE6=Y Aqui Estoy
TTITLE7=Como Te Extraño
TTITLE8=Mi Vida Eres Tu
TTITLE9=En Tu Sonrisa
TTITLE10=Me Llega Me Llega
TTITLE11=Ni Que Valieras Tanto
TTITLE12=Amarga Pena
TTITLE13=De Que Sirvio
TTITLE14=Pequeña Amante
TTITLE15=No Sera Facil
TTITLE16=Nada Ni Nadie
TTITLE17=Pero Te Dije Adios
TTITLE18=Acepto Mi Derrota
TTITLE19=El
TTITLE20=Mi Decision
TTITLE21=Dia Que Me Qieras
EXTD=
EXTT0=
EXTT1=
EXTT2=
EXTT3=
EXTT4=
EXTT5=
EXTT6=
EXTT7=
EXTT8=
EXTT9=
EXTT10=
EXTT11=
EXTT12=
EXTT13=
EXTT14=
EXTT15=
EXTT16=
EXTT17=
EXTT18=
EXTT19=
EXTT20=
EXTT21=
PLAYORDER=
